<svg xmlns="http://www.w3.org/2000/svg" viewBox="0 0 32 32"><defs><style>.cls-2{fill:#ffb74d}</style></defs><g id="blog_list" data-name="blog list"><rect x="1" y="1" width="30" height="30" rx="1" ry="1" style="fill:#ffe082"/><path class="cls-2" d="M30 1H2a1 1 0 0 0-1 1v5h30V2a1 1 0 0 0-1-1z"/><rect x="5" y="9" width="8" height="10" rx="1" ry="1" style="fill:#039be5"/><path class="cls-2" d="M26 11H16a1 1 0 0 1 0-2h10a1 1 0 0 1 0 2zM26 15H16a1 1 0 0 1 0-2h10a1 1 0 0 1 0 2zM26 19H16a1 1 0 0 1 0-2h10a1 1 0 0 1 0 2zM26 23H6a1 1 0 0 1 0-2h20a1 1 0 0 1 0 2zM26 27H6a1 1 0 0 1 0-2h20a1 1 0 0 1 0 2z"/></g></svg>